# xmcd
#
# Track frame offsets:
#	150
#	14583
#	31520
#	43731
#	60467
#	75371
#	91513
#	103740
#	115809
#	128023
#	141861
#	152090
#	171996
#	185053
#	195848
#	207604
#	219128
#	231528
#	242156
#	252846
#	262231
#
# Disc length: 3736 seconds
# Revision: 0
# Processed by: cddbd v1.5.2PL0 Copyright (c) Steve Scherf et al.
# Submitted via: dBpowerAMP V12.0
#
DISCID=1f0e9615
DTITLE=Various Artist - Forever Country CD1
DYEAR=1900
DGENRE=Country
TTITLE0=John Denver - Take Me Home, Country Roads
TTITLE1=Johnny Cash - Riders In The Sky
TTITLE2=Dolly Parton - Jolene
TTITLE3=Elvis Presley - Blue Eyes Crying In The Rain
TTITLE4=Bob Dylan - Lay, Lady, Lay
TTITLE5=Willie Nelson - Blue Skies
TTITLE6=Charlie Rich - The Most Beautiful Girl
TTITLE7=Tammy Wynette - Stand By Your Man
TTITLE8=Farnkie Laine - High Noon (Do Not Forsake Me)
TTITLE9=Jimmy Dean - Big Bad John
TTITLE10=George Hamilton IV - Abilene
TTITLE11=Marty Robbins - El Paso
TTITLE12=The Browns - The Three Bells (Les Trios Cloches)
TTITLE13=Kris Kristofferson - Help Me Make It Through The Night
TTITLE14=Johnny Cash - I Walk The Line
TTITLE15=Don Gibson and The Jordanaires - Oh, Lonesome Me
TTITLE16=Hank Snow - I'm Movin' On
TTITLE17=Connie Smith - Once A Day
TTITLE18=The Statler Brothers - Flowers On The Wall
TTITLE19=Chet Atkins - Yakety Axe
TTITLE20=Billy Swan - I Can Help
EXTD=
EXTT0=
EXTT1=
EXTT2=
EXTT3=
EXTT4=
EXTT5=
EXTT6=
EXTT7=
EXTT8=
EXTT9=
EXTT10=
EXTT11=
EXTT12=
EXTT13=
EXTT14=
EXTT15=
EXTT16=
EXTT17=
EXTT18=
EXTT19=
EXTT20=
PLAYORDER=
